DataType=double
version=3
OpenSimVersion=4.1
endheader
time	pelvis_tilt	pelvis_list	pelvis_rotation	pelvis_tx	pelvis_ty	pelvis_tz	hip_flexion_r	hip_adduction_r	hip_rotation_r	knee_angle_r	knee_angle_r_beta	ankle_angle_r	subtalar_angle_r	mtp_angle_r	hip_flexion_l	hip_adduction_l	hip_rotation_l	knee_angle_l	knee_angle_l_beta	ankle_angle_l	subtalar_angle_l	mtp_angle_l	lumbar_extension	lumbar_bending	lumbar_rotation	arm_flex_r	arm_add_r	arm_rot_r	elbow_flex_r	pro_sup_r	wrist_flex_r	wrist_dev_r	arm_flex_l	arm_add_l	arm_rot_l	elbow_flex_l	pro_sup_l	wrist_flex_l	wrist_dev_l
12.14999999999979	-0.02834068743345206	-0.02684949083713413	1.605228694958499	0	0.9399999999999999	0	-0.05311137013392394	0.02838180004564731	-0.01462272798340995	0.19416027608339	0.19416027608339	0.1354475398518622	0	0	0.4557690498687708	-0.03079850854927652	0.004193932217178569	0.03441464624234348	0.03441464624234348	0.05838889640271228	0	0	0	0	0	0	-0.2617993432305066	0	1.309000008089874	0.7853981678539818	0	0	0	-0.2617993432305066	0	1.309000008089874	0.7853981678539818	0	0
12.15999999999979	-0.02574228843957842	-0.02618195348180632	1.597499672522836	0	0.9399999999999999	0	-0.06025866019459462	0.02783076994717295	-0.01022390236444832	0.1998566932998722	0.1998566932998722	0.1384399578648427	0	0	0.453229364997718	-0.03608556071454084	0.01221300077271308	0.004998607600695837	0.004998607600695837	0.0781977415716744	0	0	0	0	0	0	-0.2617993432486218	0	1.309000008089874	0.7853981678539818	0	0	0	-0.2617993432486218	0	1.309000008089874	0.7853981678539818	0	0
12.16999999999978	-0.0233296513049735	-0.02568621127701147	1.589636024656838	0	0.9399999999999999	0	-0.06713124270693721	0.02691819002206071	-0.00603356490278721	0.2070933438376115	0.2070933438376115	0.1424378699095072	0	0	0.4613198406624677	-0.04020224138837012	0.01927787576812248	0.002151092893991583	0.002151092893991583	0.1111152679028436	0	0	0	0	0	0	-0.26179934326816	0	1.309000008089874	0.7853981678539818	0	0	0	-0.26179934326816	0	1.309000008089874	0.7853981678539818	0	0
12.17999999999978	-0.02145881046701669	-0.02585906368581496	1.581757114260228	0	0.9399999999999999	0	-0.07213885951231037	0.02471419306136275	-0.002430868822292535	0.2163164477953876	0.2163164477953876	0.1472257575404549	0	0	0.4672434785690248	-0.04083013791699591	0.02641461447234837	0.001633251214253404	0.001633251214253404	0.142097682911061	0	0	0	0	0	0	-0.2617993432916583	0	1.309000008089874	0.7853981678539818	0	0	0	-0.2617993432916583	0	1.309000008089874	0.7853981678539818	0	0
12.18999999999978	-0.01998632430796766	-0.02617006516367138	1.574163809385807	0	0.9399999999999999	0	-0.07628242523949008	0.02226328972596247	0.0009282987259076294	0.227300546819643	0.227300546819643	0.1521433683356953	0	0	0.4690124115929112	-0.03682676455483123	0.02961390540333685	0.001536017444158277	0.001536017444158277	0.1644304613067556	0	0	0	0	0	0	-0.2617993433164864	0	1.309000008089874	0.7853981678539818	0	0	0	-0.2617993433164864	0	1.309000008089874	0.7853981678539818	0	0
12.19999999999978	-0.01895565943641417	-0.02653286679943548	1.566638130814944	0	0.9399999999999999	0	-0.07956810510770398	0.01871196651486926	0.003989005102063346	0.23983105319801	0.23983105319801	0.1565862343268397	0	0	0.4688738373228418	-0.03082887929068348	0.02706697808467732	0.001535463911357942	0.001535463911357942	0.1721788214411802	0	0	0	0	0	0	-0.2617993433386136	0	1.309000008089874	0.7853981678539818	0	0	0	-0.2617993433386136	0	1.309000008089874	0.7853981678539818	0	0
12.20999999999978	-0.01820199687317971	-0.02720900858549626	1.559429402730431	0	0.9399999999999999	0	-0.08097549239447747	0.01481332405007997	0.006560723988347711	0.2552155265438201	0.2552155265438201	0.1614506095676658	0	0	0.4676309400364815	-0.02531436368122013	0.02417977063780716	0.001679130460501706	0.001679130460501706	0.1693021098556972	0	0	0	0	0	0	-0.2617993433650838	0	1.309000008089874	0.7853981678539818	0	0	0	-0.2617993433650838	0	1.309000008089874	0.7853981678539818	0	0
12.21999999999978	-0.01824252519105242	-0.02767326449656616	1.551680879832731	0	0.9399999999999999	0	-0.08445060397658014	0.01002494436161585	0.009281835772437644	0.2676523997625241	0.2676523997625241	0.1627416189342656	0	0	0.4627342122930661	-0.02256501890282742	0.02377245281519772	0.002284719225233637	0.002284719225233637	0.1658728637923424	0	0	0	0	0	0	-0.2617993433793444	0	1.309000008089874	0.7853981678539818	0	0	0	-0.2617993433793444	0	1.309000008089874	0.7853981678539818	0	0
12.22999999999978	-0.01811124376313333	-0.02839236318079888	1.544232086675541	0	0.9399999999999999	0	-0.08563983901222542	0.005262586817538706	0.01099500899931226	0.2847043274255892	0.2847043274255892	0.1662438447531762	0	0	0.4552971528579574	-0.02565356603610662	0.02688188956536568	0.005294212740546453	0.005294212740546453	0.14309464651851	0	0	0	0	0	0	-0.2617993433924969	0	1.309000008089874	0.7853981678539818	0	0	0	-0.2617993433924969	0	1.309000008089874	0.7853981678539818	0	0
12.23999999999978	-0.01823380769420817	-0.02854409084842844	1.536864852106458	0	0.9399999999999999	0	-0.08693977668754264	-0.0001335399117724121	0.01207873138842432	0.3024050278287279	0.3024050278287279	0.1675277847185592	0	0	0.4541949733160823	-0.02670320705162243	0.02905952079437281	0.02792680544559548	0.02792680544559548	0.1430044973730152	0	0	0	0	0	0	-0.2617993434424786	0	1.309000008089874	0.7853981678539818	0	0	0	-0.2617993434424786	0	1.309000008089874	0.7853981678539818	0	0
12.24999999999978	-0.01832770578762426	-0.02763937957348239	1.529523357663212	0	0.9399999999999999	0	-0.09069715802648334	-0.005481400362716072	0.01332191556170199	0.3184451788270687	0.3184451788270687	0.1660035847872543	0	0	0.4572989643579983	-0.02358056750826478	0.0280282197963101	0.05772573067111492	0.05772573067111492	0.1380653034224556	0	0	0	0	0	0	-0.261799343684845	0	1.309000008089875	0.7853981678539818	0	0	0	-0.261799343684845	0	1.309000008089875	0.7853981678539818	0	0
12.25999999999978	-0.01802729767971517	-0.02602411339540096	1.522310137017928	0	0.9399999999999999	0	-0.0956940432300995	-0.01054416822302102	0.01427415544722621	0.3335811831998993	0.3335811831998993	0.1614469422616824	0	0	0.4577616075960226	-0.02352503465214775	0.0262925150134312	0.07006542895112494	0.07006542895112494	0.1078700931670963	0	0	0	0	0	0	-0.2617993438756608	0	1.309000008089875	0.7853981678539818	0	0	0	-0.2617993438756608	0	1.309000008089875	0.7853981678539818	0	0
12.26999999999978	-0.01773258154129459	-0.02361808100449305	1.515323195552926	0	0.9399999999999999	0	-0.1005154204490044	-0.01583566238061926	0.0145815739785292	0.3503901453025846	0.3503901453025846	0.1537199088304388	0	0	0.4535675088132344	-0.0234976128443508	0.01984290709819629	0.07162975750093606	0.07162975750093606	0.0658542959449641	0	0	0	0	0	0	-0.2617993440383845	0	1.309000008089876	0.7853981678539818	0	0	0	-0.2617993440383845	0	1.309000008089876	0.7853981678539818	0	0
12.27999999999978	-0.01777982823643832	-0.02085642784795798	1.508746820305098	0	0.9399999999999999	0	-0.1048722967396591	-0.02078268981522529	0.01366982165130514	0.3689667494434041	0.3689667494434041	0.1439722382313276	0	0	0.4461633776415591	-0.02226514833210711	0.01096759103058578	0.08039013609113006	0.08039013609113006	0.03570723775208086	0	0	0	0	0	0	-0.2617993442104352	0	1.309000008089876	0.7853981678539818	0	0	0	-0.2617993442104352	0	1.309000008089876	0.7853981678539818	0	0
12.28999999999978	-0.0184000705804129	-0.01768532415968565	1.502842897887064	0	0.9399999999999999	0	-0.108691483275373	-0.02638808967983025	0.01099467948703381	0.3886532523862493	0.3886532523862493	0.1292194128194478	0	0	0.4347926272915947	-0.02026566878758235	0.003876213467689123	0.09645435670982881	0.09645435670982881	0.0184584143053212	0	0	0	0	0	0	-0.261799344363831	0	1.309000008089877	0.7853981678539818	0	0	0	-0.261799344363831	0	1.309000008089877	0.7853981678539818	0	0
12.29999999999978	-0.01910367776385153	-0.01500302337153553	1.497725256155468	0	0.9399999999999999	0	-0.109846483034013	-0.03275208093685423	0.006271344078153196	0.4120831112752222	0.4120831112752222	0.109647992551782	0	0	0.4220416723004018	-0.01685282201618028	-0.00104914583027844	0.1100206721227973	0.1100206721227973	0.0002003946789915347	0	0	0	0	0	0	-0.261799344546559	0	1.309000008089877	0.7853981678539818	0	0	0	-0.261799344546559	0	1.309000008089877	0.7853981678539818	0	0
